<?xml version="1.0" standalone="no"?>
<!DOCTYPE svg PUBLIC "-//W3C//DTD SVG 20010904//EN"
 "http://www.w3.org/TR/2001/REC-SVG-20010904/DTD/svg10.dtd">
<svg version="1.0" xmlns="http://www.w3.org/2000/svg"
 width="332.000000pt" height="146.000000pt" viewBox="0 0 332.000000 146.000000"
 preserveAspectRatio="xMidYMid meet">

<g transform="translate(0.000000,146.000000) scale(0.100000,-0.100000)"
fill="#000000" stroke="none">
<path d="M2920 1130 l0 -90 -85 0 -85 0 0 -45 0 -45 85 0 85 0 0 -90 0 -90 45
0 45 0 0 90 0 90 85 0 85 0 0 45 0 44 -82 3 -83 3 -3 88 -3 87 -44 0 -45 0 0
-90z"/>
<path d="M210 610 l0 -350 55 0 55 0 0 150 0 150 131 0 130 0 -3 48 -3 47
-127 3 -128 3 0 99 0 100 150 0 150 0 0 50 0 50 -205 0 -205 0 0 -350z"/>
<path d="M887 789 c-121 -28 -191 -126 -191 -269 -1 -121 44 -202 139 -246
130 -62 283 1 331 135 20 55 17 188 -5 236 -50 111 -163 170 -274 144z m114
-112 c95 -64 85 -271 -16 -321 -35 -17 -42 -18 -79 -5 -146 51 -116 348 35
349 14 0 41 -10 60 -23z"/>
<path d="M1469 790 c-47 -8 -111 -42 -141 -77 -65 -72 -84 -234 -39 -325 27
-57 86 -110 140 -126 79 -24 179 -10 228 32 l26 23 -22 37 -23 36 -35 -21
c-47 -29 -112 -31 -150 -3 -15 11 -38 40 -50 64 -75 146 55 326 181 252 l35
-21 26 30 c30 36 30 41 7 62 -37 33 -113 49 -183 37z"/>
<path d="M2469 791 c-112 -22 -168 -121 -121 -211 15 -29 39 -45 128 -90 101
-51 109 -57 112 -87 6 -65 -91 -85 -183 -37 l-49 27 -23 -29 c-13 -16 -23 -34
-23 -41 0 -6 26 -24 58 -40 118 -58 254 -37 310 47 32 47 27 127 -9 166 -23
26 -132 84 -156 84 -19 0 -73 51 -73 69 0 54 97 73 162 33 l35 -22 19 28 c11
15 23 32 27 39 9 15 -84 60 -138 66 -22 2 -56 1 -76 -2z"/>
<path d="M1772 573 c3 -198 4 -210 27 -250 14 -24 38 -49 57 -58 66 -31 168
-11 218 44 22 24 36 14 36 -26 0 -20 5 -23 45 -23 l45 0 0 58 c1 57 1 353 0
425 l0 37 -55 0 -55 0 0 -177 c-1 -140 -4 -182 -15 -197 -45 -60 -129 -75
-164 -30 -20 25 -21 40 -21 215 l0 189 -61 0 -61 0 4 -207z"/>
</g>
</svg>
